<?xml version="1.0" encoding="utf-8"?>
<!-- Generator: Adobe Illustrator 21.0.0, SVG Export Plug-In . SVG Version: 6.00 Build 0)  -->
<svg version="1.1" id="Calque_1" xmlns="http://www.w3.org/2000/svg" xmlns:xlink="http://www.w3.org/1999/xlink" x="0px" y="0px"
	 viewBox="0 0 1024 768" style="enable-background:new 0 0 1024 768;" xml:space="preserve">
<path d="M62.1,182.6c0.1-2.6,0.3-5.1,0.6-7.4l3.1-0.6l2,3.4c1.6,0.6,3,0.8,4.2,0.8c0.4,0,1.3-0.1,2.7-0.4c0.1-0.5,0.1-0.9,0.1-1.1
	c0-0.6-0.1-1.1-0.3-1.5c-0.2-0.3-0.7-0.7-1.4-1.1c-0.7-0.4-2-1-3.9-1.9c-2.3-1.1-3.9-2.3-5-3.6c-1-1.3-1.5-2.8-1.5-4.6
	c0-2.7,0.9-4.9,2.8-6.4c1.9-1.5,4.4-2.3,7.7-2.3c1.6,0,3.1,0.2,4.7,0.5c1.6,0.3,2.9,0.7,4.1,1.3c-0.1,1.5-0.2,3.3-0.4,5.6l-0.1,1.7
	l-2.9,0.4l-3-3.9c-1-0.3-2.2-0.4-3.6-0.4c-0.9,0-1.6,0.1-2,0.2c-0.1,0.5-0.2,0.9-0.2,1.2c0,0.6,0.1,1.1,0.4,1.5
	c0.3,0.4,0.8,0.9,1.6,1.4c0.7,0.5,1.9,1,3.3,1.7c2.1,1,3.7,1.9,4.8,2.7c1.1,0.8,1.9,1.6,2.3,2.4c0.4,0.8,0.7,1.9,0.7,3.1
	c0,2.6-1.1,4.7-3.2,6.2s-5,2.3-8.7,2.3C68.1,184,65.1,183.5,62.1,182.6z M88.1,181.4c-1.7-1.7-2.5-4.4-2.5-8c0-2.3,0.4-4.3,1.3-6
	c0.8-1.7,2-3,3.6-3.9c1.6-0.9,3.4-1.4,5.6-1.4c6.9,0,10.4,3.6,10.4,10.7c0,3.5-0.9,6.2-2.8,8.2S99,184,95.6,184
	C92.3,184,89.7,183.1,88.1,181.4z M97.7,179.2c0.4-0.1,0.8-0.2,1.3-0.5c0.2-0.6,0.3-1.4,0.4-2.4c0.1-1,0.2-1.9,0.2-2.8
	c0-2.2-0.3-3.8-1-4.9c-0.7-1.1-1.7-1.7-3-1.7c-0.9,0-1.8,0.1-2.7,0.4c-0.2,0.4-0.3,1-0.4,1.9c-0.1,0.9-0.2,1.9-0.2,3.1
	c0,2.2,0.4,4,1.1,5.2s1.7,1.8,3,1.8C96.8,179.3,97.3,179.3,97.7,179.2z"/>
<path d="M116.4,179.7l2.5-0.7v-9.7c0-0.6,0-1-0.1-1.1c-0.1-0.2-0.3-0.4-0.6-0.6l-1.8-1l0.1-3l1.1-0.2c3.3-0.7,5.7-1,7.3-1.1
	c0.2,0.6,0.4,1.1,0.5,1.7c1.4-0.7,2.7-1.1,3.7-1.4c1-0.3,2-0.4,2.8-0.4c1,0,2,0.2,2.9,0.6c0.9,0.4,1.6,0.9,2,1.5
	c1.5-0.7,2.9-1.3,4.1-1.6c1.2-0.3,2.4-0.5,3.5-0.5c2.2,0,3.8,0.6,4.8,1.9c1,1.3,1.6,3.2,1.6,5.7v7.9c0,0.6,0,0.9,0.1,1.1
	c0.1,0.2,0.3,0.4,0.7,0.6l1.9,1.1l-0.2,3h-10.9l-0.2-3.8l1.9-0.6v-7.6c0-1.1,0-2-0.1-2.5c-0.1-0.5-0.3-0.9-0.7-1.2
	c-0.4-0.3-1-0.4-1.9-0.4c-0.7,0-1.9,0.1-3.5,0.4c0.1,0.4,0.1,1.1,0.1,1.9v7.9c0,0.6,0,0.9,0.1,1.1c0.1,0.2,0.3,0.4,0.7,0.6l2,1.1
	l-0.2,3h-11l-0.2-3.8l1.9-0.6v-7.6c0-1.2,0-2-0.1-2.5c-0.1-0.5-0.3-0.9-0.7-1.1c-0.4-0.3-1-0.4-1.8-0.4c-0.9,0-2.1,0.1-3.4,0.4v9.8
	c0,0.6,0,0.9,0.1,1.1c0.1,0.2,0.3,0.4,0.6,0.6l2,1.1l-0.2,3h-11.5L116.4,179.7z M156.3,182.5c-1.1-1-1.6-2.3-1.6-3.9
	c0-2.1,1.1-3.8,3.2-5c2.1-1.2,5.2-1.9,9.3-2c0-1.3-0.1-2.2-0.3-2.8c-0.2-0.6-0.6-1-1.1-1.2s-1.3-0.3-2.4-0.3c-1.1,0-1.9,0-2.3,0.1
	l-1.6,3.2l-3-0.2c-0.5-2.1-0.8-4.3-1-6.6c1.5-0.5,3.1-0.9,4.9-1.2c1.8-0.3,3.4-0.4,5-0.4c2.8,0,4.9,0.6,6.1,1.7
	c1.2,1.1,1.8,2.9,1.8,5.5v8.4c0,0.5,0,0.8,0.1,1c0.1,0.2,0.3,0.4,0.6,0.6l1.6,0.9l-0.2,2.5c-3.1,0.7-5.5,1.1-7.3,1.2
	c-0.1-0.2-0.1-0.4-0.2-0.9c-0.1-0.4-0.2-0.8-0.3-1.2c-1,0.7-2.2,1.2-3.4,1.6c-1.2,0.4-2.4,0.6-3.5,0.6
	C158.9,184,157.4,183.5,156.3,182.5z M167.2,178.4l-0.2-3c-0.6-0.1-1.1-0.1-1.3-0.1c-0.7,0-1.6,0.1-2.5,0.2c-1,0.1-1.7,0.3-2.3,0.5
	c-0.1,0.3-0.1,0.7-0.1,1c0,0.8,0.2,1.4,0.7,1.9s1,0.7,1.8,0.7C164.4,179.5,165.7,179.1,167.2,178.4z M177.1,179.7l2.5-0.7v-9.7
	c0-0.6,0-1-0.1-1.1c-0.1-0.2-0.3-0.4-0.6-0.6l-1.8-1l0.1-3l0.9-0.2c3.5-0.7,6-1.1,7.6-1.1c0.2,0.6,0.4,1.2,0.5,1.8
	c1.6-0.7,3-1.3,4-1.5c1-0.3,2-0.4,2.9-0.4c4.2,0,6.4,2.5,6.4,7.6v7.8c0,0.6,0,0.9,0.1,1.1s0.3,0.4,0.7,0.6l1.9,1.1l-0.2,3h-11
	l-0.2-3.8l2-0.6v-7.6c0-1.2,0-2-0.1-2.5s-0.3-0.9-0.7-1.1c-0.4-0.3-1-0.4-1.9-0.4c-1,0-2.2,0.1-3.6,0.4v9.7c0,0.6,0,0.9,0.1,1.1
	s0.3,0.4,0.6,0.6l2,1.1l-0.2,3h-11.6L177.1,179.7z M204.5,187.7l4.4-4.4l-5.8-15.3c-0.3-0.7-0.5-1.2-0.6-1.4
	c-0.1-0.2-0.3-0.5-0.6-0.9l-0.7-0.9l0.2-2.3h10.2l0.4,3.4l-2.3,0.6l3.3,10l3.7-9.2c0.1-0.2,0.1-0.3,0.1-0.4c0-0.2-0.1-0.4-0.3-0.5
	l-1.9-0.8l0.4-3.2h7.6l0.4,3.2l-5.1,11.2c-1.8,4-3.4,7.2-4.6,9.5c-1.2,2.3-2.4,4.4-3.6,6.2C207.7,191.4,206,189.7,204.5,187.7z"/>
<path d="M237.9,183.5c-1.5-0.3-2.8-0.7-4.1-1.2v-22.5c0-0.6,0-1-0.1-1.1s-0.3-0.4-0.6-0.6l-1.9-0.9l0.2-3c2.5-0.4,4.4-0.7,5.6-0.9
	c1.3-0.2,2.3-0.3,3-0.3c0.3,0.6,0.5,1.3,0.6,2.1v8c1.5-0.5,3-0.8,4.5-0.8c2.8,0,5,0.9,6.6,2.7c1.6,1.8,2.4,4.3,2.4,7.6
	c0,3.7-1,6.5-3,8.5c-2,2-4.9,3-8.7,3C240.8,184,239.3,183.8,237.9,183.5z M246.5,178.4c0.2-0.7,0.4-1.6,0.5-2.5
	c0.1-1,0.2-1.9,0.2-2.8c0-4.1-1.4-6.2-4.1-6.2c-0.7,0-1.5,0.1-2.5,0.4v11c0.7,0.3,1.7,0.5,3.1,0.5
	C244.9,178.8,245.9,178.7,246.5,178.4z M259.3,181.4c-1.7-1.7-2.5-4.4-2.5-8c0-2.3,0.4-4.3,1.3-6c0.8-1.7,2-3,3.6-3.9
	c1.6-0.9,3.4-1.4,5.6-1.4c6.9,0,10.4,3.6,10.4,10.7c0,3.5-0.9,6.2-2.8,8.2s-4.5,2.9-7.9,2.9C263.5,184,261,183.1,259.3,181.4z
	 M269,179.2c0.4-0.1,0.8-0.2,1.3-0.5c0.2-0.6,0.3-1.4,0.4-2.4c0.1-1,0.2-1.9,0.2-2.8c0-2.2-0.3-3.8-1-4.9c-0.7-1.1-1.7-1.7-3-1.7
	c-0.9,0-1.8,0.1-2.7,0.4c-0.2,0.4-0.3,1-0.4,1.9c-0.1,0.9-0.2,1.9-0.2,3.1c0,2.2,0.4,4,1.1,5.2s1.7,1.8,3,1.8
	C268.1,179.3,268.6,179.3,269,179.2z M282.9,181.4c-1.7-1.7-2.5-4.4-2.5-8c0-2.3,0.4-4.3,1.3-6c0.8-1.7,2-3,3.6-3.9
	c1.6-0.9,3.4-1.4,5.6-1.4c6.9,0,10.4,3.6,10.4,10.7c0,3.5-0.9,6.2-2.8,8.2s-4.5,2.9-7.9,2.9C287.1,184,284.6,183.1,282.9,181.4z
	 M292.6,179.2c0.4-0.1,0.8-0.2,1.3-0.5c0.2-0.6,0.3-1.4,0.4-2.4c0.1-1,0.2-1.9,0.2-2.8c0-2.2-0.3-3.8-1-4.9c-0.7-1.1-1.7-1.7-3-1.7
	c-0.9,0-1.8,0.1-2.7,0.4c-0.2,0.4-0.3,1-0.4,1.9c-0.1,0.9-0.2,1.9-0.2,3.1c0,2.2,0.4,4,1.1,5.2s1.7,1.8,3,1.8
	C291.7,179.3,292.2,179.3,292.6,179.2z M302.3,179.7l2.5-0.7v-19.2c0-0.6,0-1-0.1-1.1s-0.3-0.4-0.6-0.6l-1.8-0.9l0.1-3l1.2-0.2
	c3.5-0.6,6-1,7.4-1c0.2,0.6,0.4,1.3,0.5,2.1v16.3l4.4-4.3c0.1-0.1,0.2-0.3,0.2-0.4c0-0.1,0-0.2-0.1-0.3l-1.1-1.4l0.4-2.2h8.9
	c0.2,0.9,0.4,1.8,0.5,2.8l-6.6,5.7l7.7,10.6v1.8h-7l-7.2-10.4v4.6c0,0.6,0,0.9,0.1,1.1c0.1,0.2,0.3,0.4,0.6,0.6l2,1.1l-0.2,3h-11.6
	L302.3,179.7z M327.1,183.1c0.2-2.6,0.3-4.5,0.5-5.8l2.3-0.4l2.5,2.7c0.9,0.3,1.9,0.4,3,0.4c0.6,0,1.1,0,1.4-0.1
	c0.1-0.2,0.1-0.5,0.1-0.9c0-0.3-0.1-0.6-0.2-0.8c-0.1-0.2-0.5-0.5-1-0.8c-0.5-0.3-1.4-0.7-2.6-1.4c-1.6-0.8-2.8-1.6-3.6-2.2
	c-0.8-0.7-1.4-1.3-1.8-2c-0.4-0.7-0.5-1.5-0.5-2.5c0-2.1,0.8-3.8,2.4-5.1c1.6-1.3,3.7-1.9,6.5-1.9c1.1,0,2.3,0.1,3.5,0.4
	c1.2,0.3,2.4,0.6,3.3,1c0,1.7-0.1,3.7-0.4,5.8l-2.1,0.3l-2.7-2.9c-0.7-0.2-1.7-0.3-3-0.3c-0.2,0-0.6,0-1.3,0.1
	c-0.1,0.2-0.1,0.4-0.1,0.8c0,0.4,0.1,0.7,0.3,1c0.2,0.3,0.6,0.6,1.1,0.9c0.5,0.3,1.4,0.8,2.6,1.4c1.8,0.9,3.1,1.6,4,2.2
	c0.9,0.6,1.5,1.3,1.9,1.9c0.4,0.6,0.5,1.4,0.5,2.3c0,2.2-0.8,3.9-2.5,5.1c-1.7,1.2-4,1.8-6.9,1.8
	C332.3,184.2,329.9,183.8,327.1,183.1z"/>
<path d="M353.8,183.1c0.2-2.6,0.3-4.5,0.5-5.8l2.3-0.4l2.5,2.7c0.9,0.3,1.9,0.4,3,0.4c0.6,0,1.1,0,1.4-0.1c0.1-0.2,0.1-0.5,0.1-0.9
	c0-0.3-0.1-0.6-0.2-0.8c-0.1-0.2-0.5-0.5-1-0.8c-0.5-0.3-1.4-0.7-2.6-1.4c-1.6-0.8-2.8-1.6-3.6-2.2c-0.8-0.7-1.4-1.3-1.8-2
	c-0.4-0.7-0.5-1.5-0.5-2.5c0-2.1,0.8-3.8,2.4-5.1c1.6-1.3,3.7-1.9,6.5-1.9c1.1,0,2.3,0.1,3.5,0.4c1.2,0.3,2.4,0.6,3.3,1
	c0,1.7-0.1,3.7-0.4,5.8l-2.1,0.3l-2.7-2.9c-0.7-0.2-1.7-0.3-3-0.3c-0.2,0-0.6,0-1.3,0.1c-0.1,0.2-0.1,0.4-0.1,0.8
	c0,0.4,0.1,0.7,0.3,1c0.2,0.3,0.6,0.6,1.1,0.9c0.5,0.3,1.4,0.8,2.6,1.4c1.8,0.9,3.1,1.6,4,2.2c0.9,0.6,1.5,1.3,1.9,1.9
	c0.4,0.6,0.5,1.4,0.5,2.3c0,2.2-0.8,3.9-2.5,5.1c-1.7,1.2-4,1.8-6.9,1.8C359,184.2,356.6,183.8,353.8,183.1z M375.5,181.4
	c-1.7-1.7-2.5-4.4-2.5-8c0-2.3,0.4-4.3,1.3-6c0.8-1.7,2-3,3.6-3.9c1.6-0.9,3.4-1.4,5.6-1.4c6.9,0,10.4,3.6,10.4,10.7
	c0,3.5-0.9,6.2-2.8,8.2s-4.5,2.9-7.9,2.9C379.7,184,377.2,183.1,375.5,181.4z M385.2,179.2c0.4-0.1,0.8-0.2,1.3-0.5
	c0.2-0.6,0.3-1.4,0.4-2.4c0.1-1,0.2-1.9,0.2-2.8c0-2.2-0.3-3.8-1-4.9c-0.7-1.1-1.7-1.7-3-1.7c-0.9,0-1.8,0.1-2.7,0.4
	c-0.2,0.4-0.3,1-0.4,1.9c-0.1,0.9-0.2,1.9-0.2,3.1c0,2.2,0.4,4,1.1,5.2s1.7,1.8,3,1.8C384.3,179.3,384.8,179.3,385.2,179.2z"/>
<path d="M403.8,179.8l2.8-0.8v-19.2c0-0.6,0-1-0.1-1.1c-0.1-0.2-0.3-0.4-0.7-0.6l-1.8-0.9l0.2-3c0.5-0.1,0.9-0.2,1.2-0.2
	c3.5-0.6,6-1,7.4-1c0.3,0.6,0.4,1.3,0.5,2.1v22.7c0,0.6,0,0.9,0.1,1.1c0.1,0.2,0.3,0.4,0.7,0.6l2,1.1l-0.2,3h-12L403.8,179.8z
	 M417.5,179.8l2.8-0.8v-9.7c0-0.6,0-1-0.1-1.1c-0.1-0.2-0.3-0.4-0.7-0.6l-1.8-1l0.2-3c2.2-0.4,3.9-0.7,5.1-0.9
	c1.2-0.2,2.3-0.3,3.3-0.3c0.3,1.1,0.6,2,0.6,2.6v12.8c0,0.6,0,0.9,0.1,1.1c0.1,0.2,0.3,0.4,0.7,0.6l2,1.1l-0.2,3h-12L417.5,179.8z
	 M419.2,153.9l6.8-1.8l1.6,6.1l-6.8,1.8L419.2,153.9z M434.5,182.3c-1.1-1.2-1.7-2.9-1.7-5.3v-9.7H430v-2.9l7.2-6.6l2.3,0.3v4.5h6.7
	v4.7h-6.7v8.2c0,1.3,0.2,2.1,0.5,2.6c0.4,0.4,1.1,0.6,2.1,0.6c0.9,0,2.1-0.1,3.7-0.4l0.5,4.1c-1,0.5-2,0.8-3.2,1.1s-2.3,0.4-3.4,0.4
	C437.4,184,435.6,183.4,434.5,182.3z M451.8,182.3c-1.1-1.2-1.7-2.9-1.7-5.3v-9.7h-2.8v-2.9l7.2-6.6l2.3,0.3v4.5h6.7v4.7h-6.7v8.2
	c0,1.3,0.2,2.1,0.5,2.6c0.4,0.4,1.1,0.6,2.1,0.6c0.9,0,2.1-0.1,3.7-0.4l0.5,4.1c-1,0.5-2,0.8-3.2,1.1S458,184,457,184
	C454.6,184,452.9,183.4,451.8,182.3z M465.2,179.8l2.8-0.8v-19.2c0-0.6,0-1-0.1-1.1c-0.1-0.2-0.3-0.4-0.7-0.6l-1.8-0.9l0.2-3
	c0.5-0.1,0.9-0.2,1.2-0.2c3.5-0.6,6-1,7.4-1c0.3,0.6,0.4,1.3,0.5,2.1v22.7c0,0.6,0,0.9,0.1,1.1c0.1,0.2,0.3,0.4,0.7,0.6l2,1.1
	l-0.2,3h-12L465.2,179.8z M481.3,181.1c-1.7-1.9-2.5-4.5-2.5-7.8c0-2.3,0.4-4.3,1.2-6c0.8-1.7,2-2.9,3.5-3.8s3.3-1.3,5.3-1.3
	c3,0,5.3,1,6.9,2.9c1.6,1.9,2.4,4.7,2.3,8.2l-12.2,2.2c0.4,1.1,0.9,1.9,1.6,2.5c0.7,0.5,1.6,0.8,2.7,0.8c0.8,0,1.7-0.1,2.8-0.3
	c1.1-0.2,2.1-0.5,3.2-0.9l0.9,4c-1,0.7-2.3,1.4-3.8,1.8c-1.6,0.5-3.2,0.7-4.8,0.7C485.4,184,482.9,183,481.3,181.1z M491.5,169.9
	c-0.1-1-0.3-1.8-0.9-2.2c-0.5-0.5-1.2-0.7-2.2-0.7c-0.8,0-1.5,0.1-2.2,0.3c-0.6,1.3-0.8,2.7-0.8,4.2L491.5,169.9z"/>
<path d="M510.9,182.3c-1.1-1.2-1.7-2.9-1.7-5.3v-9.7h-2.8v-2.9l7.2-6.6l2.3,0.3v4.5h6.7v4.7h-6.7v8.2c0,1.3,0.2,2.1,0.5,2.6
	c0.4,0.4,1.1,0.6,2.1,0.6c0.9,0,2.1-0.1,3.7-0.4l0.5,4.1c-1,0.5-2,0.8-3.2,1.1c-1.2,0.3-2.3,0.4-3.4,0.4
	C513.7,184,512,183.4,510.9,182.3z M524.8,179.8l2.8-0.8v-9.7c0-0.6,0-1-0.1-1.1c-0.1-0.2-0.3-0.4-0.7-0.6l-1.8-1l0.2-3
	c2.2-0.4,3.9-0.7,5.1-0.9c1.2-0.2,2.3-0.3,3.3-0.3c0.3,1.1,0.6,2,0.6,2.6v12.8c0,0.6,0,0.9,0.1,1.1c0.1,0.2,0.3,0.4,0.7,0.6l2,1.1
	l-0.2,3h-12L524.8,179.8z M526.5,153.9l6.8-1.8l1.6,6.1l-6.8,1.8L526.5,153.9z M538.7,179.7l2.5-0.7v-9.7c0-0.6,0-1-0.1-1.1
	c-0.1-0.2-0.3-0.4-0.6-0.6l-1.8-1l0.1-3l1.1-0.2c3.3-0.7,5.7-1,7.3-1.1c0.2,0.6,0.4,1.1,0.5,1.7c1.4-0.7,2.7-1.1,3.7-1.4
	c1-0.3,2-0.4,2.8-0.4c1,0,2,0.2,2.9,0.6c0.9,0.4,1.6,0.9,2,1.5c1.5-0.7,2.9-1.3,4.1-1.6c1.2-0.3,2.4-0.5,3.5-0.5
	c2.2,0,3.8,0.6,4.8,1.9c1,1.3,1.6,3.2,1.6,5.7v7.9c0,0.6,0,0.9,0.1,1.1c0.1,0.2,0.3,0.4,0.7,0.6l1.9,1.1l-0.2,3h-10.9l-0.2-3.8
	l1.9-0.6v-7.6c0-1.1,0-2-0.1-2.5c-0.1-0.5-0.3-0.9-0.7-1.2c-0.4-0.3-1-0.4-1.9-0.4c-0.7,0-1.9,0.1-3.5,0.4c0.1,0.4,0.1,1.1,0.1,1.9
	v7.9c0,0.6,0,0.9,0.1,1.1c0.1,0.2,0.3,0.4,0.7,0.6l2,1.1l-0.2,3h-11l-0.2-3.8l1.9-0.6v-7.6c0-1.2,0-2-0.1-2.5
	c-0.1-0.5-0.3-0.9-0.7-1.1c-0.4-0.3-1-0.4-1.8-0.4c-0.9,0-2.1,0.1-3.4,0.4v9.8c0,0.6,0,0.9,0.1,1.1c0.1,0.2,0.3,0.4,0.6,0.6l2,1.1
	l-0.2,3h-11.5L538.7,179.7z M579.4,181.1c-1.7-1.9-2.5-4.5-2.5-7.8c0-2.3,0.4-4.3,1.2-6c0.8-1.7,2-2.9,3.5-3.8
	c1.5-0.9,3.3-1.3,5.3-1.3c3,0,5.3,1,6.9,2.9c1.6,1.9,2.4,4.7,2.3,8.2l-12.2,2.2c0.4,1.1,0.9,1.9,1.6,2.5s1.6,0.8,2.7,0.8
	c0.8,0,1.7-0.1,2.8-0.3c1.1-0.2,2.1-0.5,3.2-0.9l0.9,4c-1,0.7-2.3,1.4-3.8,1.8c-1.6,0.5-3.2,0.7-4.8,0.7
	C583.5,184,581.1,183,579.4,181.1z M589.6,169.9c-0.1-1-0.3-1.8-0.9-2.2c-0.5-0.5-1.2-0.7-2.2-0.7c-0.8,0-1.5,0.1-2.2,0.3
	c-0.6,1.3-0.8,2.7-0.8,4.2L589.6,169.9z"/>
</svg>
