<?xml version="1.0" encoding="utf-8"?>
<!-- Generator: Adobe Illustrator 21.0.0, SVG Export Plug-In . SVG Version: 6.00 Build 0)  -->
<svg version="1.1" id="Calque_3" xmlns="http://www.w3.org/2000/svg" xmlns:xlink="http://www.w3.org/1999/xlink" x="0px" y="0px"
	 viewBox="0 0 1024 768" style="enable-background:new 0 0 1024 768;" xml:space="preserve">
<path d="M65,350.5l-8.1,1.5c1,6,4.3,9.9,12.3,9.9c0.2,0,0.7,0,1.3,0v-6.5C66.7,355.4,65.6,354.6,65,350.5z M72.5,340.5l8.1-1.4
	c-1-5.8-5.1-9.4-12.1-9.4c-0.3,0-0.8,0-1.5,0v6.3C71.3,336.1,72,337.6,72.5,340.5z M72.6,342.7c-6.5-2.6-7.3-2.2-7.3-4.5v-8.2
	c-5.5,0.8-8.2,3.9-8.2,8.8c0,6,4.2,8.1,8.1,9.6c6.5,2.6,7.1,2.4,7.1,5v8.4c4.8-0.7,8.4-3.4,8.4-9.5C80.7,347,77.8,344.8,72.6,342.7z
	 M83.4,350.2c0,3.8,1,6.9,3.3,8.9c1.8,1.6,4.3,2.3,6.7,2.4v-5.9c-1.2-0.3-1.7-1.6-1.7-5.4c0-3.7,0.5-5.1,1.7-5.4v-5.9
	c-2.4,0.1-4.9,0.8-6.7,2.4C84.4,343.3,83.4,346.4,83.4,350.2z M101.8,341.3c-1.8-1.6-4.3-2.3-6.7-2.4v5.9c1.2,0.3,1.7,1.6,1.7,5.4
	c0,3.7-0.5,5.1-1.7,5.4v5.9c2.4-0.1,4.9-0.8,6.7-2.4c2.3-1.9,3.3-5.1,3.3-8.9C105.1,346.4,104.1,343.3,101.8,341.3z"/>
<path d="M146.3,339.1c-2.3,0-4,0.3-5.3,1.5c0.6,1.1,1.1,2.4,1.3,4.1c0.2,0,0.4-0.1,0.7-0.1c1.9,0,2.3,1.2,2.3,3.4v13h8v-13.4
	C153.2,341.3,151.1,339.1,146.3,339.1z M134,339.1c-1.6,0-3.2,0.3-4.6,1.3l0.7,4.2c0.3,0,0.5,0,0.6,0c1.8,0,2,1.2,2,3.4v13h7.9
	v-13.4C140.7,341.8,138.7,339.1,134,339.1z M120.3,339.4V361h8v-16.7l-0.9-4.9H120.3z M166.8,357c-1.6,0-2.4-0.7-2.4-2.5
	c0-2.1,1.2-2.8,3.2-2.9v-3.4c-7.9,0.3-11.4,2.9-11.4,7.2c0,4.3,3.3,6.1,7.9,6.1c1.6,0,3.4-0.3,4.8-1.1c-0.6-0.9-1-2-1.2-3.4
	C167.6,356.9,167.2,357,166.8,357z M177.3,355v-7.2c0-5.8-3-8.6-9.8-8.6c-5,0-9.1,1.4-10.3,6.8l7.3,1.3c0.3-2.1,1.3-2.7,2.7-2.7
	c1.6,0,2.2,0.9,2.2,2.5v8c0,4.4,2,6.4,6.4,6.4c1.3,0,2.9-0.2,3.5-0.6V357C177.8,356.9,177.3,356.4,177.3,355z M181.9,339.4V361h8.1
	v-16.7l-0.9-4.9H181.9z M195.9,339.1c-1.8,0-3.4,0.3-4.7,1.3l0.7,4.2c0.3,0,0.5,0,0.6,0c1.8,0,2.2,1.2,2.2,3.4v13h8.1v-13.4
	C202.8,341.5,200.8,339.1,195.9,339.1z M212.7,357.1l2.1-9l-1.9-8.7h-8.5l6.2,20.4C211.7,359.3,212.4,358.4,212.7,357.1z
	 M218.6,339.4l-4.3,18.2c-0.6,2.6-2.4,4.3-6.1,4.3c-1.4,0-2.3-0.1-2.9-0.2l1.1,6.2c10.6,0,12.6-2.2,15.3-11l5.3-17.6H218.6z"/>
<path d="M239.6,361h7.3l0.9-4.9v-25.4h-8.1V361z M253.2,339.1c-1.5,0-2.7,0.3-3.7,0.9v4.8c2.3,0,2.8,0.6,3.2,2.1
	c0.2,0.9,0.3,2.1,0.3,3.3c0,1.3-0.1,2.6-0.3,3.4c-0.3,1.4-1,2.1-2.4,2.1c-0.1,0-0.3,0-0.6,0l-0.8,4.6c1.1,0.6,2.5,1,4.4,1
	c2.3,0,4.8-0.6,6.4-3.2c1-1.6,1.6-4.3,1.6-7.9c0-3.1-0.5-5.8-1.5-7.7C258.7,340.7,257,339.1,253.2,339.1z M282.3,341.3
	c-1.8-1.6-4.3-2.3-6.7-2.4v5.9c1.2,0.3,1.7,1.6,1.7,5.4c0,3.7-0.5,5.1-1.7,5.4v5.9c2.4-0.1,4.9-0.8,6.7-2.4c2.3-1.9,3.3-5.1,3.3-8.9
	C285.6,346.4,284.5,343.3,282.3,341.3z M263.8,350.2c0,3.8,1,6.9,3.3,8.9c1.8,1.6,4.3,2.3,6.7,2.4v-5.9c-1.2-0.3-1.7-1.6-1.7-5.4
	c0-3.7,0.5-5.1,1.7-5.4v-5.9c-2.4,0.1-4.9,0.8-6.7,2.4C264.9,343.3,263.8,346.4,263.8,350.2z M306.5,341.3c-1.8-1.6-4.3-2.3-6.7-2.4
	v5.9c1.2,0.3,1.7,1.6,1.7,5.4c0,3.7-0.5,5.1-1.7,5.4v5.9c2.4-0.1,4.9-0.8,6.7-2.4c2.3-1.9,3.3-5.1,3.3-8.9
	C309.8,346.4,308.8,343.3,306.5,341.3z M288.1,350.2c0,3.8,1,6.9,3.3,8.9c1.8,1.6,4.3,2.3,6.7,2.4v-5.9c-1.2-0.3-1.7-1.6-1.7-5.4
	c0-3.7,0.5-5.1,1.7-5.4v-5.9c-2.4,0.1-4.9,0.8-6.7,2.4C289.1,343.3,288.1,346.4,288.1,350.2z M334.6,339.4H326l-3,4.6v8.2l3.3,8.8
	h8.4l-5.8-13.5L334.6,339.4z M313.4,361h7.8v-30.3h-7.8V361z M347.4,346.9l7.1-1.3c-0.6-2.5-2.2-6.8-10-6.8v5.1
	C346.4,344,347.1,345.3,347.4,346.9z M342.3,353.5l-7,1.3c1,4.2,3.1,6.7,9.9,6.7v-5C343.8,356.5,342.7,355.8,342.3,353.5z
	 M347.9,348c-4.4-1.8-5.2-1.9-5.2-3.1v-6c-4.6,0.4-7.3,2.6-7.3,6.4c0,3.9,2.7,5.3,6.6,7.1c4.1,1.8,4.8,1.8,4.8,3v6
	c4.5-0.3,7.5-2.1,7.5-6.7C354.5,351.2,352.7,350,347.9,348z"/>
<path d="M375,353.5l-7,1.3c1,4.2,3.1,6.7,9.9,6.7v-5C376.5,356.5,375.4,355.8,375,353.5z M377.2,338.9v5.1c1.9,0,2.6,1.3,2.9,2.9
	l7.1-1.3C386.6,343.1,385,338.9,377.2,338.9z M380.6,348c-4.4-1.8-5.2-1.9-5.2-3.1v-6c-4.6,0.4-7.3,2.6-7.3,6.4
	c0,3.9,2.7,5.3,6.6,7.1c4.1,1.8,4.8,1.8,4.8,3v6c4.5-0.3,7.5-2.1,7.5-6.7C387.2,351.2,385.4,350,380.6,348z M389.6,350.2
	c0,3.8,1,6.9,3.3,8.9c1.8,1.6,4.3,2.3,6.7,2.4v-5.9c-1.2-0.3-1.7-1.6-1.7-5.4c0-3.7,0.5-5.1,1.7-5.4v-5.9c-2.4,0.1-4.9,0.8-6.7,2.4
	C390.6,343.3,389.6,346.4,389.6,350.2z M408,341.3c-1.8-1.6-4.3-2.3-6.7-2.4v5.9c1.2,0.3,1.7,1.6,1.7,5.4c0,3.7-0.5,5.1-1.7,5.4v5.9
	c2.4-0.1,4.9-0.8,6.7-2.4c2.3-1.9,3.3-5.1,3.3-8.9C411.3,346.4,410.3,343.3,408,341.3z"/>
<path d="M426.7,361h8.1v-30.3h-8.1V361z M439.7,337.4h8.5v-6.8h-8.5V337.4z M439.9,361h8.1v-21.6h-8.1V361z M461.9,333l-8.1,1.4v5
	h-3v6H467v-6h-5.1V333z M461.9,352v-4.8h-8.1v0.2c0,1.9,0,4.2,0,5.5c0,6.4,3.1,8.7,9,8.7c1.6,0,3.1-0.2,4-0.6v-6.1
	c-0.5,0-1.1,0.1-1.9,0.1C462.6,354.9,461.9,354.3,461.9,352z M479.3,333l-8.1,1.4v5h-3v6h16.2v-6h-5.1V333z M479.3,352v-4.8h-8.1
	v0.2c0,1.9,0,4.2,0,5.5c0,6.4,3.1,8.7,9,8.7c1.6,0,3.1-0.2,4-0.6v-6.1c-0.5,0-1.1,0.1-1.9,0.1C479.9,354.9,479.3,354.3,479.3,352z
	 M487.9,361h8.1v-30.3h-8.1V361z M510.6,355.8c-1.6,0-2.2-0.6-2.5-2c-0.2-1-0.3-2.2-0.3-3.5c0-4.9,0.8-6,1.7-6.2v-5
	c-2.4,0.1-4.7,0.8-6.5,2.3c-2.3,1.9-3.3,5.1-3.3,8.9c0,3.8,1,6.9,3.3,8.9c2,1.8,4.8,2.4,7.6,2.4c5.4,0,9.1-2.5,10.2-7.1l-7.6-1.3
	C513,355,512.4,355.8,510.6,355.8z M513.4,347.8h-3.8v3.7h11.9c0-4.6-0.7-7.9-3.3-10.1c-1.9-1.6-4.5-2.3-6.9-2.3v5
	C513.1,344.3,513.1,346,513.4,347.8z"/>
<path d="M545.6,333l-8.1,1.4v5h-3v6h16.2v-6h-5.1V333z M545.6,352v-4.8h-8.1v0.2c0,1.9,0,4.2,0,5.5c0,6.4,3.1,8.7,9,8.7
	c1.6,0,3.1-0.2,4-0.6v-6.1c-0.5,0-1.1,0.1-1.9,0.1C546.3,354.9,545.6,354.3,545.6,352z M554.2,361h8.1v-21.6h-8.1V361z M554,337.4
	h8.5v-6.8H554V337.4z M581,339.1c-1.6,0-3.2,0.3-4.6,1.3l0.7,4.2c0.3,0,0.5,0,0.6,0c1.8,0,2,1.2,2,3.4v13h7.9v-13.4
	C587.7,341.8,585.7,339.1,581,339.1z M567.2,339.4V361h8v-16.7l-0.9-4.9H567.2z M593.3,339.1c-2.3,0-4,0.3-5.3,1.5
	c0.6,1.1,1.1,2.4,1.3,4.1c0.2,0,0.4-0.1,0.7-0.1c1.9,0,2.3,1.2,2.3,3.4v13h8v-13.4C600.2,341.3,598.1,339.1,593.3,339.1z
	 M614.4,355.8c-1.6,0-2.2-0.6-2.5-2c-0.2-1-0.3-2.2-0.3-3.5c0-4.9,0.8-6,1.7-6.2v-5c-2.4,0.1-4.7,0.8-6.5,2.3
	c-2.3,1.9-3.3,5.1-3.3,8.9c0,3.8,1,6.9,3.3,8.9c2,1.8,4.8,2.4,7.6,2.4c5.4,0,9.1-2.5,10.2-7.1l-7.6-1.3
	C616.8,355,616.1,355.8,614.4,355.8z M617.1,347.8h-3.8v3.7h11.9c0-4.6-0.7-7.9-3.3-10.1c-1.9-1.6-4.5-2.3-6.9-2.3v5
	C616.9,344.3,616.8,346,617.1,347.8z"/>
</svg>
